<svg width="510" height="260" viewBox="0 0 510 260" fill="none" xmlns="http://www.w3.org/2000/svg">
<rect width="510" height="260" fill="#724F42"/>
<path d="M102.95 42.5V60H99.75V45.25H90.675V60H87.475V42.5H102.95ZM113.485 60.175C112.135 60.175 110.918 59.8833 109.835 59.3C108.751 58.7167 107.901 57.9083 107.285 56.875C106.685 55.825 106.385 54.6417 106.385 53.325C106.385 52.0083 106.685 50.8333 107.285 49.8C107.901 48.7667 108.751 47.9583 109.835 47.375C110.918 46.7917 112.135 46.5 113.485 46.5C114.851 46.5 116.076 46.7917 117.16 47.375C118.243 47.9583 119.085 48.7667 119.685 49.8C120.301 50.8333 120.61 52.0083 120.61 53.325C120.61 54.6417 120.301 55.825 119.685 56.875C119.085 57.9083 118.243 58.7167 117.16 59.3C116.076 59.8833 114.851 60.175 113.485 60.175ZM113.485 57.5C114.635 57.5 115.585 57.1167 116.335 56.35C117.085 55.5833 117.46 54.575 117.46 53.325C117.46 52.075 117.085 51.0667 116.335 50.3C115.585 49.5333 114.635 49.15 113.485 49.15C112.335 49.15 111.385 49.5333 110.635 50.3C109.901 51.0667 109.535 52.075 109.535 53.325C109.535 54.575 109.901 55.5833 110.635 56.35C111.385 57.1167 112.335 57.5 113.485 57.5ZM137.8 57.35V62.975H134.875V60H124.575V62.975H121.675V57.35H122.3C123.15 57.3167 123.725 56.775 124.025 55.725C124.342 54.6583 124.55 53.1583 124.65 51.225L124.825 46.65H135.825V57.35H137.8ZM127.5 51.45C127.434 52.9833 127.309 54.2333 127.125 55.2C126.942 56.1667 126.609 56.8833 126.125 57.35H132.7V49.3H127.575L127.5 51.45ZM145.566 46.5C147.533 46.5 149.033 46.975 150.066 47.925C151.116 48.8583 151.641 50.275 151.641 52.175V60H148.691V58.375C148.308 58.9583 147.758 59.4083 147.041 59.725C146.341 60.025 145.491 60.175 144.491 60.175C143.491 60.175 142.616 60.0083 141.866 59.675C141.116 59.325 140.533 58.85 140.116 58.25C139.716 57.6333 139.516 56.9417 139.516 56.175C139.516 54.975 139.958 54.0167 140.841 53.3C141.741 52.5667 143.15 52.2 145.066 52.2H148.516V52C148.516 51.0667 148.233 50.35 147.666 49.85C147.116 49.35 146.291 49.1 145.191 49.1C144.441 49.1 143.7 49.2167 142.966 49.45C142.25 49.6833 141.641 50.0083 141.141 50.425L139.916 48.15C140.616 47.6167 141.458 47.2083 142.441 46.925C143.425 46.6417 144.466 46.5 145.566 46.5ZM145.141 57.9C145.925 57.9 146.616 57.725 147.216 57.375C147.833 57.0083 148.266 56.4917 148.516 55.825V54.275H145.291C143.491 54.275 142.591 54.8667 142.591 56.05C142.591 56.6167 142.816 57.0667 143.266 57.4C143.716 57.7333 144.341 57.9 145.141 57.9ZM162.908 46.5C164.208 46.5 165.367 46.7833 166.383 47.35C167.417 47.9167 168.225 48.7167 168.808 49.75C169.392 50.7833 169.683 51.975 169.683 53.325C169.683 54.675 169.392 55.875 168.808 56.925C168.225 57.9583 167.417 58.7583 166.383 59.325C165.367 59.8917 164.208 60.175 162.908 60.175C161.108 60.175 159.683 59.575 158.633 58.375V64.85H155.508V46.65H158.483V48.4C159 47.7667 159.633 47.2917 160.383 46.975C161.15 46.6583 161.992 46.5 162.908 46.5ZM162.558 57.5C163.708 57.5 164.65 57.1167 165.383 56.35C166.133 55.5833 166.508 54.575 166.508 53.325C166.508 52.075 166.133 51.0667 165.383 50.3C164.65 49.5333 163.708 49.15 162.558 49.15C161.808 49.15 161.133 49.325 160.533 49.675C159.933 50.0083 159.458 50.4917 159.108 51.125C158.758 51.7583 158.583 52.4917 158.583 53.325C158.583 54.1583 158.758 54.8917 159.108 55.525C159.458 56.1583 159.933 56.65 160.533 57C161.133 57.3333 161.808 57.5 162.558 57.5ZM178.743 60.175C177.393 60.175 176.177 59.8833 175.093 59.3C174.01 58.7167 173.16 57.9083 172.543 56.875C171.943 55.825 171.643 54.6417 171.643 53.325C171.643 52.0083 171.943 50.8333 172.543 49.8C173.16 48.7667 174.01 47.9583 175.093 47.375C176.177 46.7917 177.393 46.5 178.743 46.5C180.11 46.5 181.335 46.7917 182.418 47.375C183.502 47.9583 184.343 48.7667 184.943 49.8C185.56 50.8333 185.868 52.0083 185.868 53.325C185.868 54.6417 185.56 55.825 184.943 56.875C184.343 57.9083 183.502 58.7167 182.418 59.3C181.335 59.8833 180.11 60.175 178.743 60.175ZM178.743 57.5C179.893 57.5 180.843 57.1167 181.593 56.35C182.343 55.5833 182.718 54.575 182.718 53.325C182.718 52.075 182.343 51.0667 181.593 50.3C180.843 49.5333 179.893 49.15 178.743 49.15C177.593 49.15 176.643 49.5333 175.893 50.3C175.16 51.0667 174.793 52.075 174.793 53.325C174.793 54.575 175.16 55.5833 175.893 56.35C176.643 57.1167 177.593 57.5 178.743 57.5ZM200.28 46.65V60H197.155V54.825C195.872 55.4417 194.53 55.75 193.13 55.75C191.414 55.75 190.097 55.3583 189.18 54.575C188.264 53.775 187.805 52.5583 187.805 50.925V46.65H190.93V50.725C190.93 51.575 191.18 52.2083 191.68 52.625C192.18 53.0417 192.889 53.25 193.805 53.25C194.972 53.25 196.089 53 197.155 52.5V46.65H200.28ZM204.483 46.65H207.608V52.075H214.333V46.65H217.458V60H214.333V54.725H207.608V60H204.483V46.65ZM228.146 51.05C229.846 51.05 231.146 51.4333 232.046 52.2C232.946 52.9667 233.396 54.05 233.396 55.45C233.396 56.9167 232.896 58.05 231.896 58.85C230.913 59.65 229.513 60.0417 227.696 60.025L221.646 60V46.65H224.771V51.025L228.146 51.05ZM235.121 46.65H238.246V60H235.121V46.65ZM227.421 57.725C228.338 57.7417 229.038 57.55 229.521 57.15C230.004 56.75 230.246 56.1667 230.246 55.4C230.246 54.65 230.013 54.1 229.546 53.75C229.079 53.4 228.371 53.2167 227.421 53.2L224.771 53.175V57.7L227.421 57.725ZM242.447 46.65H245.572V55.45L252.947 46.65H255.797V60H252.672V51.2L245.322 60H242.447V46.65ZM248.922 45.075C247.572 45.075 246.538 44.7667 245.822 44.15C245.122 43.5167 244.763 42.6 244.747 41.4H246.822C246.838 42 247.022 42.475 247.372 42.825C247.738 43.175 248.247 43.35 248.897 43.35C249.53 43.35 250.03 43.175 250.397 42.825C250.78 42.475 250.98 42 250.997 41.4H253.122C253.105 42.6 252.738 43.5167 252.022 44.15C251.305 44.7667 250.272 45.075 248.922 45.075ZM272.985 60.175C271.601 60.175 270.36 59.8833 269.26 59.3C268.16 58.7167 267.301 57.9083 266.685 56.875C266.068 55.825 265.76 54.6417 265.76 53.325C265.76 52.0083 266.068 50.8333 266.685 49.8C267.301 48.7667 268.151 47.9583 269.235 47.375C270.335 46.7917 271.585 46.5 272.985 46.5C274.301 46.5 275.451 46.7667 276.435 47.3C277.435 47.8333 278.185 48.6 278.685 49.6L276.285 51C275.901 50.3833 275.418 49.925 274.835 49.625C274.268 49.3083 273.643 49.15 272.96 49.15C271.793 49.15 270.826 49.5333 270.06 50.3C269.293 51.05 268.91 52.0583 268.91 53.325C268.91 54.5917 269.285 55.6083 270.035 56.375C270.801 57.125 271.776 57.5 272.96 57.5C273.643 57.5 274.268 57.35 274.835 57.05C275.418 56.7333 275.901 56.2667 276.285 55.65L278.685 57.05C278.168 58.05 277.41 58.825 276.41 59.375C275.426 59.9083 274.285 60.175 272.985 60.175ZM293.741 53.4C293.741 53.6167 293.724 53.925 293.691 54.325H283.216C283.399 55.3083 283.874 56.0917 284.641 56.675C285.424 57.2417 286.391 57.525 287.541 57.525C289.007 57.525 290.216 57.0417 291.166 56.075L292.841 58C292.241 58.7167 291.482 59.2583 290.566 59.625C289.649 59.9917 288.616 60.175 287.466 60.175C285.999 60.175 284.707 59.8833 283.591 59.3C282.474 58.7167 281.607 57.9083 280.991 56.875C280.391 55.825 280.091 54.6417 280.091 53.325C280.091 52.025 280.382 50.8583 280.966 49.825C281.566 48.775 282.391 47.9583 283.441 47.375C284.491 46.7917 285.674 46.5 286.991 46.5C288.291 46.5 289.449 46.7917 290.466 47.375C291.499 47.9417 292.299 48.75 292.866 49.8C293.449 50.8333 293.741 52.0333 293.741 53.4ZM286.991 49C285.991 49 285.141 49.3 284.441 49.9C283.757 50.4833 283.341 51.2667 283.191 52.25H290.766C290.632 51.2833 290.224 50.5 289.541 49.9C288.857 49.3 288.007 49 286.991 49ZM304.559 46.5C305.859 46.5 307.017 46.7833 308.034 47.35C309.067 47.9167 309.875 48.7167 310.459 49.75C311.042 50.7833 311.334 51.975 311.334 53.325C311.334 54.675 311.042 55.875 310.459 56.925C309.875 57.9583 309.067 58.7583 308.034 59.325C307.017 59.8917 305.859 60.175 304.559 60.175C302.759 60.175 301.334 59.575 300.284 58.375V64.85H297.159V46.65H300.134V48.4C300.65 47.7667 301.284 47.2917 302.034 46.975C302.8 46.6583 303.642 46.5 304.559 46.5ZM304.209 57.5C305.359 57.5 306.3 57.1167 307.034 56.35C307.784 55.5833 308.159 54.575 308.159 53.325C308.159 52.075 307.784 51.0667 307.034 50.3C306.3 49.5333 305.359 49.15 304.209 49.15C303.459 49.15 302.784 49.325 302.184 49.675C301.584 50.0083 301.109 50.4917 300.759 51.125C300.409 51.7583 300.234 52.4917 300.234 53.325C300.234 54.1583 300.409 54.8917 300.759 55.525C301.109 56.1583 301.584 56.65 302.184 57C302.784 57.3333 303.459 57.5 304.209 57.5ZM324.53 49.3H319.855V60H316.73V49.3H312.03V46.65H324.53V49.3ZM326.797 46.65H329.922V55.45L337.297 46.65H340.147V60H337.022V51.2L329.672 60H326.797V46.65ZM362.001 53.3C362.001 55.3667 361.309 56.9917 359.926 58.175C358.559 59.3583 356.601 60.0333 354.051 60.2V64.85H351.101V60.225C348.551 60.0583 346.593 59.3833 345.226 58.2C343.859 57.0167 343.176 55.3833 343.176 53.3C343.176 51.2333 343.859 49.625 345.226 48.475C346.593 47.3083 348.551 46.6417 351.101 46.475V41.45H354.051V46.475C356.601 46.6417 358.559 47.3083 359.926 48.475C361.309 49.6417 362.001 51.25 362.001 53.3ZM346.251 53.3C346.251 54.5833 346.643 55.5833 347.426 56.3C348.226 57.0167 349.451 57.45 351.101 57.6V49.125C349.451 49.2583 348.226 49.675 347.426 50.375C346.643 51.075 346.251 52.05 346.251 53.3ZM354.051 57.6C357.318 57.3 358.951 55.8667 358.951 53.3C358.951 52.0333 358.543 51.0583 357.726 50.375C356.926 49.675 355.701 49.2583 354.051 49.125V57.6ZM365.03 46.65H368.155V55.45L375.53 46.65H378.38V60H375.255V51.2L367.905 60H365.03V46.65ZM388.133 54.65H385.708V60H382.583V46.65H385.708V52.05H388.208L392.158 46.65H395.508L390.658 53.075L395.833 60H392.158L388.133 54.65ZM402.768 46.5C404.735 46.5 406.235 46.975 407.268 47.925C408.318 48.8583 408.843 50.275 408.843 52.175V60H405.893V58.375C405.51 58.9583 404.96 59.4083 404.243 59.725C403.543 60.025 402.693 60.175 401.693 60.175C400.693 60.175 399.818 60.0083 399.068 59.675C398.318 59.325 397.735 58.85 397.318 58.25C396.918 57.6333 396.718 56.9417 396.718 56.175C396.718 54.975 397.16 54.0167 398.043 53.3C398.943 52.5667 400.352 52.2 402.268 52.2H405.718V52C405.718 51.0667 405.435 50.35 404.868 49.85C404.318 49.35 403.493 49.1 402.393 49.1C401.643 49.1 400.902 49.2167 400.168 49.45C399.452 49.6833 398.843 50.0083 398.343 50.425L397.118 48.15C397.818 47.6167 398.66 47.2083 399.643 46.925C400.627 46.6417 401.668 46.5 402.768 46.5ZM402.343 57.9C403.127 57.9 403.818 57.725 404.418 57.375C405.035 57.0083 405.468 56.4917 405.718 55.825V54.275H402.493C400.693 54.275 399.793 54.8667 399.793 56.05C399.793 56.6167 400.018 57.0667 400.468 57.4C400.918 57.7333 401.543 57.9 402.343 57.9ZM423.285 49.3H418.61V60H415.485V49.3H410.785V46.65H423.285V49.3Z" fill="white"/>
<path d="M229.274 87.464C228.57 87.464 227.932 87.3173 227.36 87.024C226.803 86.716 226.363 86.298 226.04 85.77C225.732 85.242 225.578 84.648 225.578 83.988C225.578 83.328 225.732 82.734 226.04 82.206C226.363 81.678 226.803 81.2673 227.36 80.974C227.932 80.666 228.57 80.512 229.274 80.512C229.978 80.512 230.609 80.666 231.166 80.974C231.738 81.2673 232.185 81.678 232.508 82.206C232.831 82.734 232.992 83.328 232.992 83.988C232.992 84.648 232.831 85.242 232.508 85.77C232.185 86.298 231.738 86.716 231.166 87.024C230.609 87.3173 229.978 87.464 229.274 87.464ZM222.102 80.6H223.224V96H222.3L211.806 82.624V96H210.684V80.6H211.63L222.102 93.976V80.6ZM229.274 81.238C228.438 81.238 227.749 81.4947 227.206 82.008C226.678 82.5213 226.414 83.1813 226.414 83.988C226.414 84.7947 226.678 85.4547 227.206 85.968C227.749 86.4667 228.438 86.716 229.274 86.716C230.11 86.716 230.799 86.4667 231.342 85.968C231.885 85.4547 232.156 84.7947 232.156 83.988C232.156 83.1813 231.885 82.5213 231.342 82.008C230.799 81.4947 230.11 81.238 229.274 81.238ZM226.018 89.488H232.552V90.302H226.018V89.488ZM241.75 96.11C240.576 96.11 239.528 95.7947 238.604 95.164C237.694 94.5187 236.983 93.6093 236.47 92.436C235.971 91.2627 235.722 89.884 235.722 88.3C235.722 86.716 235.971 85.3373 236.47 84.164C236.983 82.9907 237.694 82.0887 238.604 81.458C239.528 80.8127 240.576 80.49 241.75 80.49C242.923 80.49 243.964 80.8127 244.874 81.458C245.798 82.0887 246.509 82.9907 247.008 84.164C247.521 85.3373 247.778 86.716 247.778 88.3C247.778 89.884 247.521 91.2627 247.008 92.436C246.509 93.6093 245.798 94.5187 244.874 95.164C243.964 95.7947 242.923 96.11 241.75 96.11ZM241.75 95.076C242.718 95.076 243.568 94.812 244.302 94.284C245.05 93.7413 245.629 92.964 246.04 91.952C246.45 90.9253 246.656 89.708 246.656 88.3C246.656 86.892 246.45 85.682 246.04 84.67C245.629 83.6433 245.05 82.866 244.302 82.338C243.568 81.7953 242.718 81.524 241.75 81.524C240.782 81.524 239.924 81.7953 239.176 82.338C238.442 82.866 237.87 83.6433 237.46 84.67C237.049 85.682 236.844 86.892 236.844 88.3C236.844 89.708 237.049 90.9253 237.46 91.952C237.87 92.964 238.442 93.7413 239.176 94.284C239.924 94.812 240.782 95.076 241.75 95.076ZM256.23 96.11C255.057 96.11 254.008 95.7947 253.084 95.164C252.175 94.5187 251.464 93.6093 250.95 92.436C250.452 91.2627 250.202 89.884 250.202 88.3C250.202 86.716 250.452 85.3373 250.95 84.164C251.464 82.9907 252.175 82.0887 253.084 81.458C254.008 80.8127 255.057 80.49 256.23 80.49C257.404 80.49 258.445 80.8127 259.354 81.458C260.278 82.0887 260.99 82.9907 261.488 84.164C262.002 85.3373 262.258 86.716 262.258 88.3C262.258 89.884 262.002 91.2627 261.488 92.436C260.99 93.6093 260.278 94.5187 259.354 95.164C258.445 95.7947 257.404 96.11 256.23 96.11ZM256.23 95.076C257.198 95.076 258.049 94.812 258.782 94.284C259.53 93.7413 260.11 92.964 260.52 91.952C260.931 90.9253 261.136 89.708 261.136 88.3C261.136 86.892 260.931 85.682 260.52 84.67C260.11 83.6433 259.53 82.866 258.782 82.338C258.049 81.7953 257.198 81.524 256.23 81.524C255.262 81.524 254.404 81.7953 253.656 82.338C252.923 82.866 252.351 83.6433 251.94 84.67C251.53 85.682 251.324 86.892 251.324 88.3C251.324 89.708 251.53 90.9253 251.94 91.952C252.351 92.964 252.923 93.7413 253.656 94.284C254.404 94.812 255.262 95.076 256.23 95.076ZM270.711 96.11C269.537 96.11 268.489 95.7947 267.565 95.164C266.655 94.5187 265.944 93.6093 265.431 92.436C264.932 91.2627 264.683 89.884 264.683 88.3C264.683 86.716 264.932 85.3373 265.431 84.164C265.944 82.9907 266.655 82.0887 267.565 81.458C268.489 80.8127 269.537 80.49 270.711 80.49C271.884 80.49 272.925 80.8127 273.835 81.458C274.759 82.0887 275.47 82.9907 275.969 84.164C276.482 85.3373 276.739 86.716 276.739 88.3C276.739 89.884 276.482 91.2627 275.969 92.436C275.47 93.6093 274.759 94.5187 273.835 95.164C272.925 95.7947 271.884 96.11 270.711 96.11ZM270.711 95.076C271.679 95.076 272.529 94.812 273.263 94.284C274.011 93.7413 274.59 92.964 275.001 91.952C275.411 90.9253 275.617 89.708 275.617 88.3C275.617 86.892 275.411 85.682 275.001 84.67C274.59 83.6433 274.011 82.866 273.263 82.338C272.529 81.7953 271.679 81.524 270.711 81.524C269.743 81.524 268.885 81.7953 268.137 82.338C267.403 82.866 266.831 83.6433 266.421 84.67C266.01 85.682 265.805 86.892 265.805 88.3C265.805 89.708 266.01 90.9253 266.421 91.952C266.831 92.964 267.403 93.7413 268.137 94.284C268.885 94.812 269.743 95.076 270.711 95.076ZM285.191 96.11C284.018 96.11 282.969 95.7947 282.045 95.164C281.136 94.5187 280.424 93.6093 279.911 92.436C279.412 91.2627 279.163 89.884 279.163 88.3C279.163 86.716 279.412 85.3373 279.911 84.164C280.424 82.9907 281.136 82.0887 282.045 81.458C282.969 80.8127 284.018 80.49 285.191 80.49C286.364 80.49 287.406 80.8127 288.315 81.458C289.239 82.0887 289.95 82.9907 290.449 84.164C290.962 85.3373 291.219 86.716 291.219 88.3C291.219 89.884 290.962 91.2627 290.449 92.436C289.95 93.6093 289.239 94.5187 288.315 95.164C287.406 95.7947 286.364 96.11 285.191 96.11ZM285.191 95.076C286.159 95.076 287.01 94.812 287.743 94.284C288.491 93.7413 289.07 92.964 289.481 91.952C289.892 90.9253 290.097 89.708 290.097 88.3C290.097 86.892 289.892 85.682 289.481 84.67C289.07 83.6433 288.491 82.866 287.743 82.338C287.01 81.7953 286.159 81.524 285.191 81.524C284.223 81.524 283.365 81.7953 282.617 82.338C281.884 82.866 281.312 83.6433 280.901 84.67C280.49 85.682 280.285 86.892 280.285 88.3C280.285 89.708 280.49 90.9253 280.901 91.952C281.312 92.964 281.884 93.7413 282.617 94.284C283.365 94.812 284.223 95.076 285.191 95.076ZM303.896 94.988V96H293.314V95.208L299.826 88.74C300.677 87.8893 301.249 87.1633 301.542 86.562C301.85 85.946 302.004 85.3153 302.004 84.67C302.004 83.6873 301.667 82.9173 300.992 82.36C300.332 81.8027 299.371 81.524 298.11 81.524C297.142 81.524 296.291 81.6707 295.558 81.964C294.839 82.2573 294.216 82.7047 293.688 83.306L292.896 82.602C293.483 81.9273 294.223 81.4067 295.118 81.04C296.027 80.6733 297.054 80.49 298.198 80.49C299.709 80.49 300.911 80.8567 301.806 81.59C302.701 82.3233 303.148 83.3133 303.148 84.56C303.148 85.352 302.972 86.1073 302.62 86.826C302.268 87.5447 301.608 88.3807 300.64 89.334L294.964 94.988H303.896Z" fill="white"/>
<path d="M128.642 140.6V156H126.442V149.136H117.598V156H115.398V140.6H117.598V147.222H126.442V140.6H128.642ZM137.251 144.23C138.864 144.23 140.096 144.626 140.947 145.418C141.812 146.21 142.245 147.391 142.245 148.96V156H140.243V154.46C139.891 155.003 139.385 155.421 138.725 155.714C138.08 155.993 137.31 156.132 136.415 156.132C135.11 156.132 134.061 155.817 133.269 155.186C132.492 154.555 132.103 153.727 132.103 152.7C132.103 151.673 132.477 150.852 133.225 150.236C133.973 149.605 135.161 149.29 136.789 149.29H140.133V148.872C140.133 147.963 139.869 147.266 139.341 146.782C138.813 146.298 138.036 146.056 137.009 146.056C136.32 146.056 135.645 146.173 134.985 146.408C134.325 146.628 133.768 146.929 133.313 147.31L132.433 145.726C133.034 145.242 133.753 144.875 134.589 144.626C135.425 144.362 136.312 144.23 137.251 144.23ZM136.767 154.504C137.574 154.504 138.27 154.328 138.857 153.976C139.444 153.609 139.869 153.096 140.133 152.436V150.808H136.877C135.088 150.808 134.193 151.409 134.193 152.612C134.193 153.199 134.42 153.661 134.875 153.998C135.33 154.335 135.96 154.504 136.767 154.504ZM157.038 156.132C155.85 156.132 154.787 155.875 153.848 155.362C152.924 154.849 152.198 154.145 151.67 153.25C151.142 152.341 150.878 151.314 150.878 150.17C150.878 149.026 151.142 148.007 151.67 147.112C152.198 146.203 152.924 145.499 153.848 145C154.787 144.487 155.85 144.23 157.038 144.23C158.094 144.23 159.033 144.443 159.854 144.868C160.69 145.293 161.335 145.909 161.79 146.716L160.184 147.75C159.817 147.193 159.363 146.775 158.82 146.496C158.277 146.217 157.676 146.078 157.016 146.078C156.253 146.078 155.564 146.247 154.948 146.584C154.347 146.921 153.87 147.405 153.518 148.036C153.181 148.652 153.012 149.363 153.012 150.17C153.012 150.991 153.181 151.717 153.518 152.348C153.87 152.964 154.347 153.441 154.948 153.778C155.564 154.115 156.253 154.284 157.016 154.284C157.676 154.284 158.277 154.145 158.82 153.866C159.363 153.587 159.817 153.169 160.184 152.612L161.79 153.624C161.335 154.431 160.69 155.054 159.854 155.494C159.033 155.919 158.094 156.132 157.038 156.132ZM174.78 144.34L169.126 157.166C168.627 158.354 168.041 159.19 167.366 159.674C166.706 160.158 165.907 160.4 164.968 160.4C164.396 160.4 163.839 160.305 163.296 160.114C162.768 159.938 162.328 159.674 161.976 159.322L162.878 157.738C163.479 158.31 164.176 158.596 164.968 158.596C165.481 158.596 165.907 158.457 166.244 158.178C166.596 157.914 166.911 157.452 167.19 156.792L167.564 155.978L162.416 144.34H164.616L168.686 153.668L172.712 144.34H174.78ZM190.384 144.34V156H188.47V147.486L184.114 154.68H183.19L178.878 147.464V156H176.942V144.34H179.12L183.696 152.216L188.404 144.34H190.384ZM207.937 144.34V156H206.023V147.486L201.667 154.68H200.743L196.431 147.464V156H194.495V144.34H196.673L201.249 152.216L205.957 144.34H207.937ZM222.454 144.34L216.8 157.166C216.301 158.354 215.715 159.19 215.04 159.674C214.38 160.158 213.581 160.4 212.642 160.4C212.07 160.4 211.513 160.305 210.97 160.114C210.442 159.938 210.002 159.674 209.65 159.322L210.552 157.738C211.153 158.31 211.85 158.596 212.642 158.596C213.155 158.596 213.581 158.457 213.918 158.178C214.27 157.914 214.585 157.452 214.864 156.792L215.238 155.978L210.09 144.34H212.29L216.36 153.668L220.386 144.34H222.454ZM233.935 146.738C236.135 146.738 237.748 147.156 238.775 147.992C239.816 148.813 240.337 149.943 240.337 151.38C240.337 152.289 240.117 153.111 239.677 153.844C239.251 154.563 238.599 155.135 237.719 155.56C236.853 155.971 235.783 156.176 234.507 156.176C233.421 156.176 232.373 156.015 231.361 155.692C230.349 155.355 229.513 154.893 228.853 154.306L229.865 152.568C230.393 153.067 231.067 153.47 231.889 153.778C232.71 154.071 233.575 154.218 234.485 154.218C235.643 154.218 236.538 153.976 237.169 153.492C237.814 152.993 238.137 152.319 238.137 151.468C238.137 150.544 237.785 149.847 237.081 149.378C236.377 148.894 235.174 148.652 233.473 148.652H229.975L230.789 140.6H239.479V142.514H232.637L232.219 146.738H233.935ZM248.459 156.176C247.242 156.176 246.157 155.868 245.203 155.252C244.265 154.621 243.524 153.712 242.981 152.524C242.439 151.336 242.167 149.928 242.167 148.3C242.167 146.672 242.439 145.264 242.981 144.076C243.524 142.888 244.265 141.986 245.203 141.37C246.157 140.739 247.242 140.424 248.459 140.424C249.662 140.424 250.733 140.739 251.671 141.37C252.625 141.986 253.373 142.888 253.915 144.076C254.458 145.264 254.729 146.672 254.729 148.3C254.729 149.928 254.458 151.336 253.915 152.524C253.373 153.712 252.625 154.621 251.671 155.252C250.733 155.868 249.662 156.176 248.459 156.176ZM248.459 154.218C249.691 154.218 250.674 153.712 251.407 152.7C252.155 151.688 252.529 150.221 252.529 148.3C252.529 146.379 252.155 144.912 251.407 143.9C250.674 142.888 249.691 142.382 248.459 142.382C247.213 142.382 246.215 142.888 245.467 143.9C244.734 144.912 244.367 146.379 244.367 148.3C244.367 150.221 244.734 151.688 245.467 152.7C246.215 153.712 247.213 154.218 248.459 154.218ZM269.041 156.176C267.824 156.176 266.739 155.868 265.785 155.252C264.847 154.621 264.106 153.712 263.563 152.524C263.021 151.336 262.749 149.928 262.749 148.3C262.749 146.672 263.021 145.264 263.563 144.076C264.106 142.888 264.847 141.986 265.785 141.37C266.739 140.739 267.824 140.424 269.041 140.424C270.244 140.424 271.315 140.739 272.253 141.37C273.207 141.986 273.955 142.888 274.497 144.076C275.04 145.264 275.311 146.672 275.311 148.3C275.311 149.928 275.04 151.336 274.497 152.524C273.955 153.712 273.207 154.621 272.253 155.252C271.315 155.868 270.244 156.176 269.041 156.176ZM269.041 154.218C270.273 154.218 271.256 153.712 271.989 152.7C272.737 151.688 273.111 150.221 273.111 148.3C273.111 146.379 272.737 144.912 271.989 143.9C271.256 142.888 270.273 142.382 269.041 142.382C267.795 142.382 266.797 142.888 266.049 143.9C265.316 144.912 264.949 146.379 264.949 148.3C264.949 150.221 265.316 151.688 266.049 152.7C266.797 153.712 267.795 154.218 269.041 154.218ZM283.715 156.176C282.498 156.176 281.413 155.868 280.459 155.252C279.521 154.621 278.78 153.712 278.237 152.524C277.695 151.336 277.423 149.928 277.423 148.3C277.423 146.672 277.695 145.264 278.237 144.076C278.78 142.888 279.521 141.986 280.459 141.37C281.413 140.739 282.498 140.424 283.715 140.424C284.918 140.424 285.989 140.739 286.927 141.37C287.881 141.986 288.629 142.888 289.171 144.076C289.714 145.264 289.985 146.672 289.985 148.3C289.985 149.928 289.714 151.336 289.171 152.524C288.629 153.712 287.881 154.621 286.927 155.252C285.989 155.868 284.918 156.176 283.715 156.176ZM283.715 154.218C284.947 154.218 285.93 153.712 286.663 152.7C287.411 151.688 287.785 150.221 287.785 148.3C287.785 146.379 287.411 144.912 286.663 143.9C285.93 142.888 284.947 142.382 283.715 142.382C282.469 142.382 281.471 142.888 280.723 143.9C279.99 144.912 279.623 146.379 279.623 148.3C279.623 150.221 279.99 151.688 280.723 152.7C281.471 153.712 282.469 154.218 283.715 154.218ZM298.389 156.176C297.172 156.176 296.086 155.868 295.133 155.252C294.194 154.621 293.454 153.712 292.911 152.524C292.368 151.336 292.097 149.928 292.097 148.3C292.097 146.672 292.368 145.264 292.911 144.076C293.454 142.888 294.194 141.986 295.133 141.37C296.086 140.739 297.172 140.424 298.389 140.424C299.592 140.424 300.662 140.739 301.601 141.37C302.554 141.986 303.302 142.888 303.845 144.076C304.388 145.264 304.659 146.672 304.659 148.3C304.659 149.928 304.388 151.336 303.845 152.524C303.302 153.712 302.554 154.621 301.601 155.252C300.662 155.868 299.592 156.176 298.389 156.176ZM298.389 154.218C299.621 154.218 300.604 153.712 301.337 152.7C302.085 151.688 302.459 150.221 302.459 148.3C302.459 146.379 302.085 144.912 301.337 143.9C300.604 142.888 299.621 142.382 298.389 142.382C297.142 142.382 296.145 142.888 295.397 143.9C294.664 144.912 294.297 146.379 294.297 148.3C294.297 150.221 294.664 151.688 295.397 152.7C296.145 153.712 297.142 154.218 298.389 154.218ZM319.851 144.23C320.98 144.23 321.992 144.479 322.887 144.978C323.782 145.477 324.478 146.173 324.977 147.068C325.49 147.963 325.747 148.997 325.747 150.17C325.747 151.343 325.49 152.385 324.977 153.294C324.478 154.189 323.782 154.885 322.887 155.384C321.992 155.883 320.98 156.132 319.851 156.132C319.015 156.132 318.245 155.971 317.541 155.648C316.852 155.325 316.265 154.856 315.781 154.24V160.268H313.669V144.34H315.693V146.188C316.162 145.543 316.756 145.059 317.475 144.736C318.194 144.399 318.986 144.23 319.851 144.23ZM319.675 154.284C320.423 154.284 321.09 154.115 321.677 153.778C322.278 153.426 322.748 152.942 323.085 152.326C323.437 151.695 323.613 150.977 323.613 150.17C323.613 149.363 323.437 148.652 323.085 148.036C322.748 147.405 322.278 146.921 321.677 146.584C321.09 146.247 320.423 146.078 319.675 146.078C318.942 146.078 318.274 146.254 317.673 146.606C317.086 146.943 316.617 147.42 316.265 148.036C315.928 148.652 315.759 149.363 315.759 150.17C315.759 150.977 315.928 151.695 316.265 152.326C316.602 152.942 317.072 153.426 317.673 153.778C318.274 154.115 318.942 154.284 319.675 154.284ZM338.899 144.34L333.245 157.166C332.747 158.354 332.16 159.19 331.485 159.674C330.825 160.158 330.026 160.4 329.087 160.4C328.515 160.4 327.958 160.305 327.415 160.114C326.887 159.938 326.447 159.674 326.095 159.322L326.997 157.738C327.599 158.31 328.295 158.596 329.087 158.596C329.601 158.596 330.026 158.457 330.363 158.178C330.715 157.914 331.031 157.452 331.309 156.792L331.683 155.978L326.535 144.34H328.735L332.805 153.668L336.831 144.34H338.899ZM346.851 144.736C347.937 144.736 348.905 144.978 349.755 145.462C350.606 145.946 351.266 146.621 351.735 147.486C352.219 148.337 352.461 149.312 352.461 150.412C352.461 151.541 352.205 152.546 351.691 153.426C351.193 154.291 350.481 154.966 349.557 155.45C348.648 155.934 347.607 156.176 346.433 156.176C344.453 156.176 342.921 155.501 341.835 154.152C340.765 152.788 340.229 150.874 340.229 148.41C340.229 146.019 340.721 144.149 341.703 142.8C342.686 141.436 344.189 140.534 346.213 140.094L351.537 138.906L351.845 140.842L346.939 141.898C345.414 142.235 344.277 142.807 343.529 143.614C342.781 144.421 342.356 145.579 342.253 147.09C342.752 146.342 343.397 145.763 344.189 145.352C344.981 144.941 345.869 144.736 346.851 144.736ZM346.477 154.416C347.225 154.416 347.885 154.247 348.457 153.91C349.044 153.573 349.499 153.111 349.821 152.524C350.144 151.923 350.305 151.241 350.305 150.478C350.305 149.319 349.953 148.388 349.249 147.684C348.545 146.98 347.621 146.628 346.477 146.628C345.333 146.628 344.402 146.98 343.683 147.684C342.979 148.388 342.627 149.319 342.627 150.478C342.627 151.241 342.789 151.923 343.111 152.524C343.449 153.111 343.911 153.573 344.497 153.91C345.084 154.247 345.744 154.416 346.477 154.416ZM365.402 144.34V156H363.29V146.188H358.274L358.142 148.784C358.068 150.353 357.929 151.666 357.724 152.722C357.518 153.763 357.181 154.599 356.712 155.23C356.242 155.861 355.59 156.176 354.754 156.176C354.372 156.176 353.94 156.11 353.456 155.978L353.588 154.196C353.778 154.24 353.954 154.262 354.116 154.262C354.702 154.262 355.142 154.005 355.436 153.492C355.729 152.979 355.92 152.37 356.008 151.666C356.096 150.962 356.176 149.957 356.25 148.652L356.448 144.34H365.402ZM380.023 150.236C380.023 150.397 380.009 150.61 379.979 150.874H370.519C370.651 151.901 371.099 152.729 371.861 153.36C372.639 153.976 373.599 154.284 374.743 154.284C376.137 154.284 377.259 153.815 378.109 152.876L379.275 154.24C378.747 154.856 378.087 155.325 377.295 155.648C376.518 155.971 375.645 156.132 374.677 156.132C373.445 156.132 372.353 155.883 371.399 155.384C370.446 154.871 369.705 154.159 369.177 153.25C368.664 152.341 368.407 151.314 368.407 150.17C368.407 149.041 368.657 148.021 369.155 147.112C369.669 146.203 370.365 145.499 371.245 145C372.14 144.487 373.145 144.23 374.259 144.23C375.374 144.23 376.364 144.487 377.229 145C378.109 145.499 378.791 146.203 379.275 147.112C379.774 148.021 380.023 149.063 380.023 150.236ZM374.259 146.012C373.247 146.012 372.397 146.32 371.707 146.936C371.033 147.552 370.637 148.359 370.519 149.356H377.999C377.882 148.373 377.479 147.574 376.789 146.958C376.115 146.327 375.271 146.012 374.259 146.012ZM383.3 144.34H385.412V152.832L392.562 144.34H394.476V156H392.364V147.508L385.236 156H383.3V144.34ZM388.756 142.822C387.671 142.822 386.827 142.565 386.226 142.052C385.625 141.524 385.317 140.769 385.302 139.786H386.732C386.747 140.329 386.93 140.769 387.282 141.106C387.649 141.429 388.133 141.59 388.734 141.59C389.335 141.59 389.819 141.429 390.186 141.106C390.553 140.769 390.743 140.329 390.758 139.786H392.232C392.217 140.769 391.902 141.524 391.286 142.052C390.67 142.565 389.827 142.822 388.756 142.822Z" fill="white"/>
<path d="M92.819 198.6L89.003 205.668C88.731 206.172 88.411 206.548 88.043 206.796C87.683 207.036 87.287 207.156 86.855 207.156C86.535 207.156 86.191 207.08 85.823 206.928L86.075 206.208C86.363 206.32 86.627 206.376 86.867 206.376C87.419 206.376 87.871 206.076 88.223 205.476L88.463 205.068L85.055 198.6H86.003L88.931 204.288L91.931 198.6H92.819ZM96.155 207.06C95.531 207.06 94.971 206.924 94.475 206.652C93.987 206.38 93.603 206 93.323 205.512C93.043 205.016 92.903 204.46 92.903 203.844C92.903 203.228 93.043 202.676 93.323 202.188C93.603 201.7 93.987 201.32 94.475 201.048C94.971 200.776 95.531 200.64 96.155 200.64C96.699 200.64 97.183 200.748 97.607 200.964C98.039 201.172 98.379 201.48 98.627 201.888L97.991 202.32C97.783 202.008 97.519 201.776 97.199 201.624C96.879 201.464 96.531 201.384 96.155 201.384C95.699 201.384 95.287 201.488 94.919 201.696C94.559 201.896 94.275 202.184 94.067 202.56C93.867 202.936 93.767 203.364 93.767 203.844C93.767 204.332 93.867 204.764 94.067 205.14C94.275 205.508 94.559 205.796 94.919 206.004C95.287 206.204 95.699 206.304 96.155 206.304C96.531 206.304 96.879 206.228 97.199 206.076C97.519 205.924 97.783 205.692 97.991 205.38L98.627 205.812C98.379 206.22 98.039 206.532 97.607 206.748C97.175 206.956 96.691 207.06 96.155 207.06ZM105.226 200.688V207H104.374V201.444H101.35L101.266 203.004C101.202 204.316 101.05 205.324 100.81 206.028C100.57 206.732 100.142 207.084 99.5258 207.084C99.3578 207.084 99.1538 207.052 98.9138 206.988L98.9738 206.256C99.1178 206.288 99.2178 206.304 99.2738 206.304C99.6018 206.304 99.8498 206.152 100.018 205.848C100.186 205.544 100.298 205.168 100.354 204.72C100.41 204.272 100.458 203.68 100.498 202.944L100.606 200.688H105.226ZM113.012 200.688L109.856 207.756C109.6 208.348 109.304 208.768 108.968 209.016C108.632 209.264 108.228 209.388 107.756 209.388C107.452 209.388 107.168 209.34 106.904 209.244C106.64 209.148 106.412 209.004 106.22 208.812L106.616 208.176C106.936 208.496 107.32 208.656 107.768 208.656C108.056 208.656 108.3 208.576 108.5 208.416C108.708 208.256 108.9 207.984 109.076 207.6L109.352 206.988L106.532 200.688H107.42L109.796 206.052L112.172 200.688H113.012ZM118.803 201.444H115.191V207H114.339V200.688H118.803V201.444ZM120.035 200.688H120.887V205.704L125.099 200.688H125.855V207H125.003V201.984L120.803 207H120.035V200.688ZM137.101 200.688V207H136.249V201.444H132.289V207H131.437V200.688H137.101ZM142.775 200.64C143.367 200.64 143.903 200.776 144.383 201.048C144.863 201.312 145.239 201.688 145.511 202.176C145.783 202.664 145.919 203.22 145.919 203.844C145.919 204.476 145.783 205.036 145.511 205.524C145.239 206.012 144.863 206.392 144.383 206.664C143.911 206.928 143.375 207.06 142.775 207.06C142.263 207.06 141.799 206.956 141.383 206.748C140.975 206.532 140.639 206.22 140.375 205.812V209.328H139.523V200.688H140.339V201.936C140.595 201.52 140.931 201.2 141.347 200.976C141.771 200.752 142.247 200.64 142.775 200.64ZM142.715 206.304C143.155 206.304 143.555 206.204 143.915 206.004C144.275 205.796 144.555 205.504 144.755 205.128C144.963 204.752 145.067 204.324 145.067 203.844C145.067 203.364 144.963 202.94 144.755 202.572C144.555 202.196 144.275 201.904 143.915 201.696C143.555 201.488 143.155 201.384 142.715 201.384C142.267 201.384 141.863 201.488 141.503 201.696C141.151 201.904 140.871 202.196 140.663 202.572C140.463 202.94 140.363 203.364 140.363 203.844C140.363 204.324 140.463 204.752 140.663 205.128C140.871 205.504 141.151 205.796 141.503 206.004C141.863 206.204 142.267 206.304 142.715 206.304ZM153.269 204.108H147.989C148.037 204.764 148.289 205.296 148.745 205.704C149.201 206.104 149.777 206.304 150.473 206.304C150.865 206.304 151.225 206.236 151.553 206.1C151.881 205.956 152.165 205.748 152.405 205.476L152.885 206.028C152.605 206.364 152.253 206.62 151.829 206.796C151.413 206.972 150.953 207.06 150.449 207.06C149.801 207.06 149.225 206.924 148.721 206.652C148.225 206.372 147.837 205.988 147.557 205.5C147.277 205.012 147.137 204.46 147.137 203.844C147.137 203.228 147.269 202.676 147.533 202.188C147.805 201.7 148.173 201.32 148.637 201.048C149.109 200.776 149.637 200.64 150.221 200.64C150.805 200.64 151.329 200.776 151.793 201.048C152.257 201.32 152.621 201.7 152.885 202.188C153.149 202.668 153.281 203.22 153.281 203.844L153.269 204.108ZM150.221 201.372C149.613 201.372 149.101 201.568 148.685 201.96C148.277 202.344 148.045 202.848 147.989 203.472H152.465C152.409 202.848 152.173 202.344 151.757 201.96C151.349 201.568 150.837 201.372 150.221 201.372ZM161.194 206.256V208.524H160.39V207H154.738V208.524H153.934V206.256H154.294C154.718 206.232 155.006 205.92 155.158 205.32C155.31 204.72 155.414 203.88 155.47 202.8L155.554 200.688H160.21V206.256H161.194ZM156.25 202.848C156.21 203.744 156.134 204.484 156.022 205.068C155.91 205.644 155.71 206.04 155.422 206.256H159.358V201.444H156.322L156.25 202.848ZM165.459 207.06C164.851 207.06 164.303 206.924 163.815 206.652C163.327 206.372 162.943 205.988 162.663 205.5C162.383 205.012 162.243 204.46 162.243 203.844C162.243 203.228 162.383 202.676 162.663 202.188C162.943 201.7 163.327 201.32 163.815 201.048C164.303 200.776 164.851 200.64 165.459 200.64C166.067 200.64 166.615 200.776 167.103 201.048C167.591 201.32 167.971 201.7 168.243 202.188C168.523 202.676 168.663 203.228 168.663 203.844C168.663 204.46 168.523 205.012 168.243 205.5C167.971 205.988 167.591 206.372 167.103 206.652C166.615 206.924 166.067 207.06 165.459 207.06ZM165.459 206.304C165.907 206.304 166.307 206.204 166.659 206.004C167.019 205.796 167.299 205.504 167.499 205.128C167.699 204.752 167.799 204.324 167.799 203.844C167.799 203.364 167.699 202.936 167.499 202.56C167.299 202.184 167.019 201.896 166.659 201.696C166.307 201.488 165.907 201.384 165.459 201.384C165.011 201.384 164.607 201.488 164.247 201.696C163.895 201.896 163.615 202.184 163.407 202.56C163.207 202.936 163.107 203.364 163.107 203.844C163.107 204.324 163.207 204.752 163.407 205.128C163.615 205.504 163.895 205.796 164.247 206.004C164.607 206.204 165.011 206.304 165.459 206.304ZM173.124 207.06C172.5 207.06 171.94 206.924 171.444 206.652C170.956 206.38 170.572 206 170.292 205.512C170.012 205.016 169.872 204.46 169.872 203.844C169.872 203.228 170.012 202.676 170.292 202.188C170.572 201.7 170.956 201.32 171.444 201.048C171.94 200.776 172.5 200.64 173.124 200.64C173.668 200.64 174.152 200.748 174.576 200.964C175.008 201.172 175.348 201.48 175.596 201.888L174.96 202.32C174.752 202.008 174.488 201.776 174.168 201.624C173.848 201.464 173.5 201.384 173.124 201.384C172.668 201.384 172.256 201.488 171.888 201.696C171.528 201.896 171.244 202.184 171.036 202.56C170.836 202.936 170.736 203.364 170.736 203.844C170.736 204.332 170.836 204.764 171.036 205.14C171.244 205.508 171.528 205.796 171.888 206.004C172.256 206.204 172.668 206.304 173.124 206.304C173.5 206.304 173.848 206.228 174.168 206.076C174.488 205.924 174.752 205.692 174.96 205.38L175.596 205.812C175.348 206.22 175.008 206.532 174.576 206.748C174.144 206.956 173.66 207.06 173.124 207.06ZM181.568 201.444H179.18V207H178.328V201.444H175.94V200.688H181.568V201.444ZM184.972 200.64C185.796 200.64 186.428 200.848 186.868 201.264C187.308 201.672 187.528 202.28 187.528 203.088V207H186.712V206.016C186.52 206.344 186.236 206.6 185.86 206.784C185.492 206.968 185.052 207.06 184.54 207.06C183.836 207.06 183.276 206.892 182.86 206.556C182.444 206.22 182.236 205.776 182.236 205.224C182.236 204.688 182.428 204.256 182.812 203.928C183.204 203.6 183.824 203.436 184.672 203.436H186.676V203.052C186.676 202.508 186.524 202.096 186.22 201.816C185.916 201.528 185.472 201.384 184.888 201.384C184.488 201.384 184.104 201.452 183.736 201.588C183.368 201.716 183.052 201.896 182.788 202.128L182.404 201.492C182.724 201.22 183.108 201.012 183.556 200.868C184.004 200.716 184.476 200.64 184.972 200.64ZM184.672 206.388C185.152 206.388 185.564 206.28 185.908 206.064C186.252 205.84 186.508 205.52 186.676 205.104V204.072H184.696C183.616 204.072 183.076 204.448 183.076 205.2C183.076 205.568 183.216 205.86 183.496 206.076C183.776 206.284 184.168 206.388 184.672 206.388ZM193.816 203.736C194.672 203.936 195.1 204.452 195.1 205.284C195.1 205.836 194.896 206.26 194.488 206.556C194.08 206.852 193.472 207 192.664 207H189.796V200.688H192.58C193.3 200.688 193.864 200.828 194.272 201.108C194.68 201.388 194.884 201.788 194.884 202.308C194.884 202.652 194.788 202.948 194.596 203.196C194.412 203.436 194.152 203.616 193.816 203.736ZM190.624 203.496H192.52C193.008 203.496 193.38 203.404 193.636 203.22C193.9 203.036 194.032 202.768 194.032 202.416C194.032 202.064 193.9 201.8 193.636 201.624C193.38 201.448 193.008 201.36 192.52 201.36H190.624V203.496ZM192.628 206.328C193.172 206.328 193.58 206.24 193.852 206.064C194.124 205.888 194.26 205.612 194.26 205.236C194.26 204.86 194.136 204.584 193.888 204.408C193.64 204.224 193.248 204.132 192.712 204.132H190.624V206.328H192.628ZM202.257 200.688V207H201.405V201.444H198.381L198.297 203.004C198.233 204.316 198.081 205.324 197.841 206.028C197.601 206.732 197.173 207.084 196.557 207.084C196.389 207.084 196.185 207.052 195.945 206.988L196.005 206.256C196.149 206.288 196.249 206.304 196.305 206.304C196.633 206.304 196.881 206.152 197.049 205.848C197.217 205.544 197.329 205.168 197.385 204.72C197.441 204.272 197.489 203.68 197.529 202.944L197.637 200.688H202.257ZM209.527 200.688V207H208.747V204.912H206.767H206.527L205.063 207H204.139L205.711 204.792C205.223 204.656 204.847 204.424 204.583 204.096C204.319 203.768 204.187 203.352 204.187 202.848C204.187 202.144 204.427 201.608 204.907 201.24C205.387 200.872 206.043 200.688 206.875 200.688H209.527ZM205.051 202.872C205.051 203.808 205.647 204.276 206.839 204.276H208.747V201.444H206.899C205.667 201.444 205.051 201.92 205.051 202.872ZM217.38 200.64C217.972 200.64 218.504 200.776 218.976 201.048C219.456 201.32 219.832 201.7 220.104 202.188C220.376 202.676 220.512 203.228 220.512 203.844C220.512 204.46 220.376 205.012 220.104 205.5C219.832 205.988 219.456 206.372 218.976 206.652C218.504 206.924 217.972 207.06 217.38 207.06C216.82 207.06 216.312 206.94 215.856 206.7C215.4 206.452 215.028 206.112 214.74 205.68C214.46 205.248 214.296 204.752 214.248 204.192H212.808V207H211.956V200.688H212.808V203.412H214.26C214.324 202.868 214.496 202.388 214.776 201.972C215.064 201.548 215.432 201.22 215.88 200.988C216.328 200.756 216.828 200.64 217.38 200.64ZM217.38 206.316C217.812 206.316 218.2 206.212 218.544 206.004C218.896 205.796 219.172 205.504 219.372 205.128C219.572 204.752 219.672 204.324 219.672 203.844C219.672 203.364 219.572 202.936 219.372 202.56C219.172 202.184 218.896 201.896 218.544 201.696C218.2 201.488 217.812 201.384 217.38 201.384C216.948 201.384 216.556 201.488 216.204 201.696C215.86 201.896 215.588 202.184 215.388 202.56C215.188 202.936 215.088 203.364 215.088 203.844C215.088 204.324 215.188 204.752 215.388 205.128C215.588 205.504 215.86 205.796 216.204 206.004C216.556 206.212 216.948 206.316 217.38 206.316ZM226.545 201.444H224.157V207H223.305V201.444H220.917V200.688H226.545V201.444ZM230.124 207.06C229.5 207.06 228.94 206.924 228.444 206.652C227.956 206.38 227.572 206 227.292 205.512C227.012 205.016 226.872 204.46 226.872 203.844C226.872 203.228 227.012 202.676 227.292 202.188C227.572 201.7 227.956 201.32 228.444 201.048C228.94 200.776 229.5 200.64 230.124 200.64C230.668 200.64 231.152 200.748 231.576 200.964C232.008 201.172 232.348 201.48 232.596 201.888L231.96 202.32C231.752 202.008 231.488 201.776 231.168 201.624C230.848 201.464 230.5 201.384 230.124 201.384C229.668 201.384 229.256 201.488 228.888 201.696C228.528 201.896 228.244 202.184 228.036 202.56C227.836 202.936 227.736 203.364 227.736 203.844C227.736 204.332 227.836 204.764 228.036 205.14C228.244 205.508 228.528 205.796 228.888 206.004C229.256 206.204 229.668 206.304 230.124 206.304C230.5 206.304 230.848 206.228 231.168 206.076C231.488 205.924 231.752 205.692 231.96 205.38L232.596 205.812C232.348 206.22 232.008 206.532 231.576 206.748C231.144 206.956 230.66 207.06 230.124 207.06ZM238.883 200.688V207H238.103V204.912H236.123H235.883L234.419 207H233.495L235.067 204.792C234.579 204.656 234.203 204.424 233.939 204.096C233.675 203.768 233.543 203.352 233.543 202.848C233.543 202.144 233.783 201.608 234.263 201.24C234.743 200.872 235.399 200.688 236.231 200.688H238.883ZM234.407 202.872C234.407 203.808 235.003 204.276 236.195 204.276H238.103V201.444H236.255C235.023 201.444 234.407 201.92 234.407 202.872ZM250.117 200.688V207H249.265V201.444H245.305V207H244.453V200.688H250.117ZM255.142 207.06C254.534 207.06 253.986 206.924 253.498 206.652C253.01 206.372 252.626 205.988 252.346 205.5C252.066 205.012 251.926 204.46 251.926 203.844C251.926 203.228 252.066 202.676 252.346 202.188C252.626 201.7 253.01 201.32 253.498 201.048C253.986 200.776 254.534 200.64 255.142 200.64C255.75 200.64 256.298 200.776 256.786 201.048C257.274 201.32 257.654 201.7 257.926 202.188C258.206 202.676 258.346 203.228 258.346 203.844C258.346 204.46 258.206 205.012 257.926 205.5C257.654 205.988 257.274 206.372 256.786 206.652C256.298 206.924 255.75 207.06 255.142 207.06ZM255.142 206.304C255.59 206.304 255.99 206.204 256.342 206.004C256.702 205.796 256.982 205.504 257.182 205.128C257.382 204.752 257.482 204.324 257.482 203.844C257.482 203.364 257.382 202.936 257.182 202.56C256.982 202.184 256.702 201.896 256.342 201.696C255.99 201.488 255.59 201.384 255.142 201.384C254.694 201.384 254.29 201.488 253.93 201.696C253.578 201.896 253.298 202.184 253.09 202.56C252.89 202.936 252.79 203.364 252.79 203.844C252.79 204.324 252.89 204.752 253.09 205.128C253.298 205.504 253.578 205.796 253.93 206.004C254.29 206.204 254.694 206.304 255.142 206.304ZM268.972 200.688V207H268.12V201.444H264.16V207H263.308V200.688H268.972ZM274.646 200.64C275.238 200.64 275.774 200.776 276.254 201.048C276.734 201.312 277.11 201.688 277.382 202.176C277.654 202.664 277.79 203.22 277.79 203.844C277.79 204.476 277.654 205.036 277.382 205.524C277.11 206.012 276.734 206.392 276.254 206.664C275.782 206.928 275.246 207.06 274.646 207.06C274.134 207.06 273.67 206.956 273.254 206.748C272.846 206.532 272.51 206.22 272.246 205.812V209.328H271.394V200.688H272.21V201.936C272.466 201.52 272.802 201.2 273.218 200.976C273.642 200.752 274.118 200.64 274.646 200.64ZM274.586 206.304C275.026 206.304 275.426 206.204 275.786 206.004C276.146 205.796 276.426 205.504 276.626 205.128C276.834 204.752 276.938 204.324 276.938 203.844C276.938 203.364 276.834 202.94 276.626 202.572C276.426 202.196 276.146 201.904 275.786 201.696C275.426 201.488 275.026 201.384 274.586 201.384C274.138 201.384 273.734 201.488 273.374 201.696C273.022 201.904 272.742 202.196 272.534 202.572C272.334 202.94 272.234 203.364 272.234 203.844C272.234 204.324 272.334 204.752 272.534 205.128C272.742 205.504 273.022 205.796 273.374 206.004C273.734 206.204 274.138 206.304 274.586 206.304ZM285.141 204.108H279.861C279.909 204.764 280.161 205.296 280.617 205.704C281.073 206.104 281.649 206.304 282.345 206.304C282.737 206.304 283.097 206.236 283.425 206.1C283.753 205.956 284.037 205.748 284.277 205.476L284.757 206.028C284.477 206.364 284.125 206.62 283.701 206.796C283.285 206.972 282.825 207.06 282.321 207.06C281.673 207.06 281.097 206.924 280.593 206.652C280.097 206.372 279.709 205.988 279.429 205.5C279.149 205.012 279.009 204.46 279.009 203.844C279.009 203.228 279.141 202.676 279.405 202.188C279.677 201.7 280.045 201.32 280.509 201.048C280.981 200.776 281.509 200.64 282.093 200.64C282.677 200.64 283.201 200.776 283.665 201.048C284.129 201.32 284.493 201.7 284.757 202.188C285.021 202.668 285.153 203.22 285.153 203.844L285.141 204.108ZM282.093 201.372C281.485 201.372 280.973 201.568 280.557 201.96C280.149 202.344 279.917 202.848 279.861 203.472H284.337C284.281 202.848 284.045 202.344 283.629 201.96C283.221 201.568 282.709 201.372 282.093 201.372ZM293.066 206.256V208.524H292.262V207H286.61V208.524H285.806V206.256H286.166C286.59 206.232 286.878 205.92 287.03 205.32C287.182 204.72 287.286 203.88 287.342 202.8L287.426 200.688H292.082V206.256H293.066ZM288.122 202.848C288.082 203.744 288.006 204.484 287.894 205.068C287.782 205.644 287.582 206.04 287.294 206.256H291.23V201.444H288.194L288.122 202.848ZM298.746 203.736C299.602 203.936 300.03 204.452 300.03 205.284C300.03 205.836 299.826 206.26 299.418 206.556C299.01 206.852 298.402 207 297.594 207H294.726V200.688H297.51C298.23 200.688 298.794 200.828 299.202 201.108C299.61 201.388 299.814 201.788 299.814 202.308C299.814 202.652 299.718 202.948 299.526 203.196C299.342 203.436 299.082 203.616 298.746 203.736ZM295.554 203.496H297.45C297.938 203.496 298.31 203.404 298.566 203.22C298.83 203.036 298.962 202.768 298.962 202.416C298.962 202.064 298.83 201.8 298.566 201.624C298.31 201.448 297.938 201.36 297.45 201.36H295.554V203.496ZM297.558 206.328C298.102 206.328 298.51 206.24 298.782 206.064C299.054 205.888 299.19 205.612 299.19 205.236C299.19 204.86 299.066 204.584 298.818 204.408C298.57 204.224 298.178 204.132 297.642 204.132H295.554V206.328H297.558ZM304.199 200.64C305.023 200.64 305.655 200.848 306.095 201.264C306.535 201.672 306.755 202.28 306.755 203.088V207H305.939V206.016C305.747 206.344 305.463 206.6 305.087 206.784C304.719 206.968 304.279 207.06 303.767 207.06C303.063 207.06 302.503 206.892 302.087 206.556C301.671 206.22 301.463 205.776 301.463 205.224C301.463 204.688 301.655 204.256 302.039 203.928C302.431 203.6 303.051 203.436 303.899 203.436H305.903V203.052C305.903 202.508 305.751 202.096 305.447 201.816C305.143 201.528 304.699 201.384 304.115 201.384C303.715 201.384 303.331 201.452 302.963 201.588C302.595 201.716 302.279 201.896 302.015 202.128L301.631 201.492C301.951 201.22 302.335 201.012 302.783 200.868C303.231 200.716 303.703 200.64 304.199 200.64ZM303.899 206.388C304.379 206.388 304.791 206.28 305.135 206.064C305.479 205.84 305.735 205.52 305.903 205.104V204.072H303.923C302.843 204.072 302.303 204.448 302.303 205.2C302.303 205.568 302.443 205.86 302.723 206.076C303.003 206.284 303.395 206.388 303.899 206.388ZM312.275 200.64C312.867 200.64 313.403 200.776 313.883 201.048C314.363 201.312 314.739 201.688 315.011 202.176C315.283 202.664 315.419 203.22 315.419 203.844C315.419 204.476 315.283 205.036 315.011 205.524C314.739 206.012 314.363 206.392 313.883 206.664C313.411 206.928 312.875 207.06 312.275 207.06C311.763 207.06 311.299 206.956 310.883 206.748C310.475 206.532 310.139 206.22 309.875 205.812V209.328H309.023V200.688H309.839V201.936C310.095 201.52 310.431 201.2 310.847 200.976C311.271 200.752 311.747 200.64 312.275 200.64ZM312.215 206.304C312.655 206.304 313.055 206.204 313.415 206.004C313.775 205.796 314.055 205.504 314.255 205.128C314.463 204.752 314.567 204.324 314.567 203.844C314.567 203.364 314.463 202.94 314.255 202.572C314.055 202.196 313.775 201.904 313.415 201.696C313.055 201.488 312.655 201.384 312.215 201.384C311.767 201.384 311.363 201.488 311.003 201.696C310.651 201.904 310.371 202.196 310.163 202.572C309.963 202.94 309.863 203.364 309.863 203.844C309.863 204.324 309.963 204.752 310.163 205.128C310.371 205.504 310.651 205.796 311.003 206.004C311.363 206.204 311.767 206.304 312.215 206.304ZM317.249 200.688H318.101V205.704L322.313 200.688H323.069V207H322.217V201.984L318.017 207H317.249V200.688ZM329.951 201.444H327.563V207H326.711V201.444H324.323V200.688H329.951V201.444ZM336.41 204.108H331.13C331.178 204.764 331.43 205.296 331.886 205.704C332.342 206.104 332.918 206.304 333.614 206.304C334.006 206.304 334.366 206.236 334.694 206.1C335.022 205.956 335.306 205.748 335.546 205.476L336.026 206.028C335.746 206.364 335.394 206.62 334.97 206.796C334.554 206.972 334.094 207.06 333.59 207.06C332.942 207.06 332.366 206.924 331.862 206.652C331.366 206.372 330.978 205.988 330.698 205.5C330.418 205.012 330.278 204.46 330.278 203.844C330.278 203.228 330.41 202.676 330.674 202.188C330.946 201.7 331.314 201.32 331.778 201.048C332.25 200.776 332.778 200.64 333.362 200.64C333.946 200.64 334.47 200.776 334.934 201.048C335.398 201.32 335.762 201.7 336.026 202.188C336.29 202.668 336.422 203.22 336.422 203.844L336.41 204.108ZM333.362 201.372C332.754 201.372 332.242 201.568 331.826 201.96C331.418 202.344 331.186 202.848 331.13 203.472H335.606C335.55 202.848 335.314 202.344 334.898 201.96C334.49 201.568 333.978 201.372 333.362 201.372ZM343.339 200.688V207H342.487V201.444H339.463L339.379 203.004C339.315 204.316 339.163 205.324 338.923 206.028C338.683 206.732 338.255 207.084 337.639 207.084C337.471 207.084 337.267 207.052 337.027 206.988L337.087 206.256C337.231 206.288 337.331 206.304 337.387 206.304C337.715 206.304 337.963 206.152 338.131 205.848C338.299 205.544 338.411 205.168 338.467 204.72C338.523 204.272 338.571 203.68 338.611 202.944L338.719 200.688H343.339ZM348.473 202.92C349.265 202.928 349.865 203.104 350.273 203.448C350.689 203.792 350.897 204.288 350.897 204.936C350.897 205.608 350.673 206.124 350.225 206.484C349.785 206.844 349.145 207.02 348.305 207.012L345.761 207V200.688H346.613V202.896L348.473 202.92ZM348.257 206.364C348.841 206.372 349.281 206.256 349.577 206.016C349.881 205.768 350.033 205.408 350.033 204.936C350.033 204.472 349.885 204.128 349.589 203.904C349.293 203.68 348.849 203.564 348.257 203.556L346.613 203.532V206.34L348.257 206.364ZM352.523 200.688H353.375V203.484H357.347V200.688H358.199V207H357.347V204.216H353.375V207H352.523V200.688ZM363.225 207.06C362.617 207.06 362.069 206.924 361.581 206.652C361.093 206.372 360.709 205.988 360.429 205.5C360.149 205.012 360.009 204.46 360.009 203.844C360.009 203.228 360.149 202.676 360.429 202.188C360.709 201.7 361.093 201.32 361.581 201.048C362.069 200.776 362.617 200.64 363.225 200.64C363.833 200.64 364.381 200.776 364.869 201.048C365.357 201.32 365.737 201.7 366.009 202.188C366.289 202.676 366.429 203.228 366.429 203.844C366.429 204.46 366.289 205.012 366.009 205.5C365.737 205.988 365.357 206.372 364.869 206.652C364.381 206.924 363.833 207.06 363.225 207.06ZM363.225 206.304C363.673 206.304 364.073 206.204 364.425 206.004C364.785 205.796 365.065 205.504 365.265 205.128C365.465 204.752 365.565 204.324 365.565 203.844C365.565 203.364 365.465 202.936 365.265 202.56C365.065 202.184 364.785 201.896 364.425 201.696C364.073 201.488 363.673 201.384 363.225 201.384C362.777 201.384 362.373 201.488 362.013 201.696C361.661 201.896 361.381 202.184 361.173 202.56C360.973 202.936 360.873 203.364 360.873 203.844C360.873 204.324 360.973 204.752 361.173 205.128C361.381 205.504 361.661 205.796 362.013 206.004C362.373 206.204 362.777 206.304 363.225 206.304ZM368.249 200.688H369.101V205.704L373.313 200.688H374.069V207H373.217V201.984L369.017 207H368.249V200.688ZM371.117 199.776C370.573 199.776 370.141 199.64 369.821 199.368C369.501 199.096 369.337 198.712 369.329 198.216H369.941C369.949 198.528 370.061 198.78 370.277 198.972C370.493 199.156 370.773 199.248 371.117 199.248C371.461 199.248 371.741 199.156 371.957 198.972C372.181 198.78 372.297 198.528 372.305 198.216H372.917C372.909 198.712 372.741 199.096 372.413 199.368C372.093 199.64 371.661 199.776 371.117 199.776ZM382.724 203.712C383.172 203.816 383.516 203.996 383.756 204.252C384.004 204.508 384.128 204.82 384.128 205.188C384.128 205.556 384 205.884 383.744 206.172C383.496 206.46 383.156 206.684 382.724 206.844C382.292 206.996 381.816 207.072 381.296 207.072C380.84 207.072 380.392 207.008 379.952 206.88C379.512 206.744 379.128 206.548 378.8 206.292L379.088 205.656C379.376 205.872 379.712 206.04 380.096 206.16C380.48 206.28 380.868 206.34 381.26 206.34C381.844 206.34 382.32 206.232 382.688 206.016C383.064 205.792 383.252 205.492 383.252 205.116C383.252 204.78 383.1 204.52 382.796 204.336C382.492 204.144 382.076 204.048 381.548 204.048H380.468V203.424H381.5C381.972 203.424 382.352 203.336 382.64 203.16C382.928 202.976 383.072 202.732 383.072 202.428C383.072 202.092 382.908 201.828 382.58 201.636C382.26 201.444 381.84 201.348 381.32 201.348C380.64 201.348 379.968 201.52 379.304 201.864L379.064 201.204C379.816 200.812 380.596 200.616 381.404 200.616C381.884 200.616 382.316 200.688 382.7 200.832C383.092 200.968 383.396 201.164 383.612 201.42C383.836 201.676 383.948 201.972 383.948 202.308C383.948 202.628 383.836 202.912 383.612 203.16C383.396 203.408 383.1 203.592 382.724 203.712ZM388.234 200.64C389.058 200.64 389.69 200.848 390.13 201.264C390.57 201.672 390.79 202.28 390.79 203.088V207H389.974V206.016C389.782 206.344 389.498 206.6 389.122 206.784C388.754 206.968 388.314 207.06 387.802 207.06C387.098 207.06 386.538 206.892 386.122 206.556C385.706 206.22 385.498 205.776 385.498 205.224C385.498 204.688 385.69 204.256 386.074 203.928C386.466 203.6 387.086 203.436 387.934 203.436H389.938V203.052C389.938 202.508 389.786 202.096 389.482 201.816C389.178 201.528 388.734 201.384 388.15 201.384C387.75 201.384 387.366 201.452 386.998 201.588C386.63 201.716 386.314 201.896 386.05 202.128L385.666 201.492C385.986 201.22 386.37 201.012 386.818 200.868C387.266 200.716 387.738 200.64 388.234 200.64ZM387.934 206.388C388.414 206.388 388.826 206.28 389.17 206.064C389.514 205.84 389.77 205.52 389.938 205.104V204.072H387.958C386.878 204.072 386.338 204.448 386.338 205.2C386.338 205.568 386.478 205.86 386.758 206.076C387.038 206.284 387.43 206.388 387.934 206.388ZM398.722 200.688V207H397.87V201.444H393.91V207H393.058V200.688H398.722ZM401.144 200.688H401.996V205.704L406.208 200.688H406.964V207H406.112V201.984L401.912 207H401.144V200.688ZM412.046 207.06C411.422 207.06 410.862 206.924 410.366 206.652C409.878 206.38 409.494 206 409.214 205.512C408.934 205.016 408.794 204.46 408.794 203.844C408.794 203.228 408.934 202.676 409.214 202.188C409.494 201.7 409.878 201.32 410.366 201.048C410.862 200.776 411.422 200.64 412.046 200.64C412.59 200.64 413.074 200.748 413.498 200.964C413.93 201.172 414.27 201.48 414.518 201.888L413.882 202.32C413.674 202.008 413.41 201.776 413.09 201.624C412.77 201.464 412.422 201.384 412.046 201.384C411.59 201.384 411.178 201.488 410.81 201.696C410.45 201.896 410.166 202.184 409.958 202.56C409.758 202.936 409.658 203.364 409.658 203.844C409.658 204.332 409.758 204.764 409.958 205.14C410.166 205.508 410.45 205.796 410.81 206.004C411.178 206.204 411.59 206.304 412.046 206.304C412.422 206.304 412.77 206.228 413.09 206.076C413.41 205.924 413.674 205.692 413.882 205.38L414.518 205.812C414.27 206.22 413.93 206.532 413.498 206.748C413.066 206.956 412.582 207.06 412.046 207.06ZM416.167 200.688H417.019V205.704L421.231 200.688H421.987V207H421.135V201.984L416.935 207H416.167V200.688ZM424.489 207.06C424.313 207.06 424.161 206.996 424.033 206.868C423.913 206.74 423.853 206.584 423.853 206.4C423.853 206.216 423.913 206.064 424.033 205.944C424.161 205.816 424.313 205.752 424.489 205.752C424.665 205.752 424.817 205.816 424.945 205.944C425.073 206.064 425.137 206.216 425.137 206.4C425.137 206.584 425.073 206.74 424.945 206.868C424.817 206.996 424.665 207.06 424.489 207.06ZM86.2289 222.072C85.3969 222.072 84.6449 221.888 83.9729 221.52C83.3089 221.152 82.7849 220.644 82.4009 219.996C82.0249 219.34 81.8369 218.608 81.8369 217.8C81.8369 216.992 82.0249 216.264 82.4009 215.616C82.7849 214.96 83.3129 214.448 83.9849 214.08C84.6569 213.712 85.4089 213.528 86.2409 213.528C86.8649 213.528 87.4409 213.632 87.9689 213.84C88.4969 214.048 88.9449 214.352 89.3129 214.752L88.7489 215.316C88.0929 214.652 87.2649 214.32 86.2649 214.32C85.6009 214.32 84.9969 214.472 84.4529 214.776C83.9089 215.08 83.4809 215.496 83.1689 216.024C82.8649 216.552 82.7129 217.144 82.7129 217.8C82.7129 218.456 82.8649 219.048 83.1689 219.576C83.4809 220.104 83.9089 220.52 84.4529 220.824C84.9969 221.128 85.6009 221.28 86.2649 221.28C87.2729 221.28 88.1009 220.944 88.7489 220.272L89.3129 220.836C88.9449 221.236 88.4929 221.544 87.9569 221.76C87.4289 221.968 86.8529 222.072 86.2289 222.072ZM94.1948 215.64C94.7868 215.64 95.3228 215.776 95.8028 216.048C96.2828 216.312 96.6588 216.688 96.9308 217.176C97.2028 217.664 97.3388 218.22 97.3388 218.844C97.3388 219.476 97.2028 220.036 96.9308 220.524C96.6588 221.012 96.2828 221.392 95.8028 221.664C95.3308 221.928 94.7948 222.06 94.1948 222.06C93.6828 222.06 93.2188 221.956 92.8028 221.748C92.3948 221.532 92.0588 221.22 91.7948 220.812V224.328H90.9428V215.688H91.7588V216.936C92.0148 216.52 92.3508 216.2 92.7668 215.976C93.1908 215.752 93.6668 215.64 94.1948 215.64ZM94.1348 221.304C94.5748 221.304 94.9748 221.204 95.3348 221.004C95.6948 220.796 95.9748 220.504 96.1748 220.128C96.3828 219.752 96.4868 219.324 96.4868 218.844C96.4868 218.364 96.3828 217.94 96.1748 217.572C95.9748 217.196 95.6948 216.904 95.3348 216.696C94.9748 216.488 94.5748 216.384 94.1348 216.384C93.6868 216.384 93.2828 216.488 92.9228 216.696C92.5708 216.904 92.2908 217.196 92.0828 217.572C91.8828 217.94 91.7828 218.364 91.7828 218.844C91.7828 219.324 91.8828 219.752 92.0828 220.128C92.2908 220.504 92.5708 220.796 92.9228 221.004C93.2828 221.204 93.6868 221.304 94.1348 221.304ZM101.773 222.06C101.165 222.06 100.617 221.924 100.129 221.652C99.6413 221.372 99.2573 220.988 98.9773 220.5C98.6973 220.012 98.5573 219.46 98.5573 218.844C98.5573 218.228 98.6973 217.676 98.9773 217.188C99.2573 216.7 99.6413 216.32 100.129 216.048C100.617 215.776 101.165 215.64 101.773 215.64C102.381 215.64 102.929 215.776 103.417 216.048C103.905 216.32 104.285 216.7 104.557 217.188C104.837 217.676 104.977 218.228 104.977 218.844C104.977 219.46 104.837 220.012 104.557 220.5C104.285 220.988 103.905 221.372 103.417 221.652C102.929 221.924 102.381 222.06 101.773 222.06ZM101.773 221.304C102.221 221.304 102.621 221.204 102.973 221.004C103.333 220.796 103.613 220.504 103.813 220.128C104.013 219.752 104.113 219.324 104.113 218.844C104.113 218.364 104.013 217.936 103.813 217.56C103.613 217.184 103.333 216.896 102.973 216.696C102.621 216.488 102.221 216.384 101.773 216.384C101.325 216.384 100.921 216.488 100.561 216.696C100.209 216.896 99.9293 217.184 99.7213 217.56C99.5213 217.936 99.4213 218.364 99.4213 218.844C99.4213 219.324 99.5213 219.752 99.7213 220.128C99.9293 220.504 100.209 220.796 100.561 221.004C100.921 221.204 101.325 221.304 101.773 221.304ZM109.09 219.192H107.65V222H106.798V215.688H107.65V218.46H109.102L111.322 215.688H112.246L109.762 218.748L112.426 222H111.418L109.09 219.192ZM123.068 221.256V223.524H122.264V222H116.612V223.524H115.808V221.256H116.168C116.592 221.232 116.88 220.92 117.032 220.32C117.184 219.72 117.288 218.88 117.344 217.8L117.428 215.688H122.084V221.256H123.068ZM118.124 217.848C118.084 218.744 118.008 219.484 117.896 220.068C117.784 220.644 117.584 221.04 117.296 221.256H121.232V216.444H118.196L118.124 217.848ZM130.248 219.108H124.968C125.016 219.764 125.268 220.296 125.724 220.704C126.18 221.104 126.756 221.304 127.452 221.304C127.844 221.304 128.204 221.236 128.532 221.1C128.86 220.956 129.144 220.748 129.384 220.476L129.864 221.028C129.584 221.364 129.232 221.62 128.808 221.796C128.392 221.972 127.932 222.06 127.428 222.06C126.78 222.06 126.204 221.924 125.7 221.652C125.204 221.372 124.816 220.988 124.536 220.5C124.256 220.012 124.116 219.46 124.116 218.844C124.116 218.228 124.248 217.676 124.512 217.188C124.784 216.7 125.152 216.32 125.616 216.048C126.088 215.776 126.616 215.64 127.2 215.64C127.784 215.64 128.308 215.776 128.772 216.048C129.236 216.32 129.6 216.7 129.864 217.188C130.128 217.668 130.26 218.22 130.26 218.844L130.248 219.108ZM127.2 216.372C126.592 216.372 126.08 216.568 125.664 216.96C125.256 217.344 125.024 217.848 124.968 218.472H129.444C129.388 217.848 129.152 217.344 128.736 216.96C128.328 216.568 127.816 216.372 127.2 216.372ZM132.146 215.688H132.998V220.704L137.21 215.688H137.966V222H137.114V216.984L132.914 222H132.146V215.688ZM135.014 214.776C134.47 214.776 134.038 214.64 133.718 214.368C133.398 214.096 133.234 213.712 133.226 213.216H133.838C133.846 213.528 133.958 213.78 134.174 213.972C134.39 214.156 134.67 214.248 135.014 214.248C135.358 214.248 135.638 214.156 135.854 213.972C136.078 213.78 136.194 213.528 136.202 213.216H136.814C136.806 213.712 136.638 214.096 136.31 214.368C135.99 214.64 135.558 214.776 135.014 214.776ZM143.048 222.06C142.424 222.06 141.864 221.924 141.368 221.652C140.88 221.38 140.496 221 140.216 220.512C139.936 220.016 139.796 219.46 139.796 218.844C139.796 218.228 139.936 217.676 140.216 217.188C140.496 216.7 140.88 216.32 141.368 216.048C141.864 215.776 142.424 215.64 143.048 215.64C143.592 215.64 144.076 215.748 144.5 215.964C144.932 216.172 145.272 216.48 145.52 216.888L144.884 217.32C144.676 217.008 144.412 216.776 144.092 216.624C143.772 216.464 143.424 216.384 143.048 216.384C142.592 216.384 142.18 216.488 141.812 216.696C141.452 216.896 141.168 217.184 140.96 217.56C140.76 217.936 140.66 218.364 140.66 218.844C140.66 219.332 140.76 219.764 140.96 220.14C141.168 220.508 141.452 220.796 141.812 221.004C142.18 221.204 142.592 221.304 143.048 221.304C143.424 221.304 143.772 221.228 144.092 221.076C144.412 220.924 144.676 220.692 144.884 220.38L145.52 220.812C145.272 221.22 144.932 221.532 144.5 221.748C144.068 221.956 143.584 222.06 143.048 222.06ZM151.492 216.444H149.104V222H148.252V216.444H145.864V215.688H151.492V216.444ZM156.744 218.736C157.6 218.936 158.028 219.452 158.028 220.284C158.028 220.836 157.824 221.26 157.416 221.556C157.008 221.852 156.4 222 155.592 222H152.724V215.688H155.508C156.228 215.688 156.792 215.828 157.2 216.108C157.608 216.388 157.812 216.788 157.812 217.308C157.812 217.652 157.716 217.948 157.524 218.196C157.34 218.436 157.08 218.616 156.744 218.736ZM153.552 218.496H155.448C155.936 218.496 156.308 218.404 156.564 218.22C156.828 218.036 156.96 217.768 156.96 217.416C156.96 217.064 156.828 216.8 156.564 216.624C156.308 216.448 155.936 216.36 155.448 216.36H153.552V218.496ZM155.556 221.328C156.1 221.328 156.508 221.24 156.78 221.064C157.052 220.888 157.188 220.612 157.188 220.236C157.188 219.86 157.064 219.584 156.816 219.408C156.568 219.224 156.176 219.132 155.64 219.132H153.552V221.328H155.556ZM160.025 215.688H160.877V220.704L165.089 215.688H165.845V222H164.993V216.984L160.793 222H160.025V215.688ZM173.135 215.688V222H172.355V219.912H170.375H170.135L168.671 222H167.747L169.319 219.792C168.831 219.656 168.455 219.424 168.191 219.096C167.927 218.768 167.795 218.352 167.795 217.848C167.795 217.144 168.035 216.608 168.515 216.24C168.995 215.872 169.651 215.688 170.483 215.688H173.135ZM168.659 217.872C168.659 218.808 169.255 219.276 170.447 219.276H172.355V216.444H170.507C169.275 216.444 168.659 216.92 168.659 217.872ZM181.344 222.06C180.72 222.06 180.16 221.924 179.664 221.652C179.176 221.38 178.792 221 178.512 220.512C178.232 220.016 178.092 219.46 178.092 218.844C178.092 218.228 178.232 217.676 178.512 217.188C178.792 216.7 179.176 216.32 179.664 216.048C180.16 215.776 180.72 215.64 181.344 215.64C181.888 215.64 182.372 215.748 182.796 215.964C183.228 216.172 183.568 216.48 183.816 216.888L183.18 217.32C182.972 217.008 182.708 216.776 182.388 216.624C182.068 216.464 181.72 216.384 181.344 216.384C180.888 216.384 180.476 216.488 180.108 216.696C179.748 216.896 179.464 217.184 179.256 217.56C179.056 217.936 178.956 218.364 178.956 218.844C178.956 219.332 179.056 219.764 179.256 220.14C179.464 220.508 179.748 220.796 180.108 221.004C180.476 221.204 180.888 221.304 181.344 221.304C181.72 221.304 182.068 221.228 182.388 221.076C182.708 220.924 182.972 220.692 183.18 220.38L183.816 220.812C183.568 221.22 183.228 221.532 182.796 221.748C182.364 221.956 181.88 222.06 181.344 222.06ZM190.881 219.108H185.601C185.649 219.764 185.901 220.296 186.357 220.704C186.813 221.104 187.389 221.304 188.085 221.304C188.477 221.304 188.837 221.236 189.165 221.1C189.493 220.956 189.777 220.748 190.017 220.476L190.497 221.028C190.217 221.364 189.865 221.62 189.441 221.796C189.025 221.972 188.565 222.06 188.061 222.06C187.413 222.06 186.837 221.924 186.333 221.652C185.837 221.372 185.449 220.988 185.169 220.5C184.889 220.012 184.749 219.46 184.749 218.844C184.749 218.228 184.881 217.676 185.145 217.188C185.417 216.7 185.785 216.32 186.249 216.048C186.721 215.776 187.249 215.64 187.833 215.64C188.417 215.64 188.941 215.776 189.405 216.048C189.869 216.32 190.233 216.7 190.497 217.188C190.761 217.668 190.893 218.22 190.893 218.844L190.881 219.108ZM187.833 216.372C187.225 216.372 186.713 216.568 186.297 216.96C185.889 217.344 185.657 217.848 185.601 218.472H190.077C190.021 217.848 189.785 217.344 189.369 216.96C188.961 216.568 188.449 216.372 187.833 216.372ZM196.031 215.64C196.623 215.64 197.159 215.776 197.639 216.048C198.119 216.312 198.495 216.688 198.767 217.176C199.039 217.664 199.175 218.22 199.175 218.844C199.175 219.476 199.039 220.036 198.767 220.524C198.495 221.012 198.119 221.392 197.639 221.664C197.167 221.928 196.631 222.06 196.031 222.06C195.519 222.06 195.055 221.956 194.639 221.748C194.231 221.532 193.895 221.22 193.631 220.812V224.328H192.779V215.688H193.595V216.936C193.851 216.52 194.187 216.2 194.603 215.976C195.027 215.752 195.503 215.64 196.031 215.64ZM195.971 221.304C196.411 221.304 196.811 221.204 197.171 221.004C197.531 220.796 197.811 220.504 198.011 220.128C198.219 219.752 198.323 219.324 198.323 218.844C198.323 218.364 198.219 217.94 198.011 217.572C197.811 217.196 197.531 216.904 197.171 216.696C196.811 216.488 196.411 216.384 195.971 216.384C195.523 216.384 195.119 216.488 194.759 216.696C194.407 216.904 194.127 217.196 193.919 217.572C193.719 217.94 193.619 218.364 193.619 218.844C193.619 219.324 193.719 219.752 193.919 220.128C194.127 220.504 194.407 220.796 194.759 221.004C195.119 221.204 195.523 221.304 195.971 221.304ZM205.211 216.444H202.823V222H201.971V216.444H199.583V215.688H205.211V216.444ZM206.443 215.688H207.295V220.704L211.507 215.688H212.263V222H211.411V216.984L207.211 222H206.443V215.688ZM222.324 218.832C222.324 219.816 222 220.588 221.352 221.148C220.704 221.708 219.788 222.012 218.604 222.06V224.328H217.776V222.072C216.6 222.024 215.688 221.72 215.04 221.16C214.4 220.592 214.08 219.816 214.08 218.832C214.08 217.856 214.4 217.092 215.04 216.54C215.688 215.988 216.6 215.688 217.776 215.64V213.096H218.604V215.64C219.788 215.696 220.704 216 221.352 216.552C222 217.104 222.324 217.864 222.324 218.832ZM214.92 218.832C214.92 219.584 215.16 220.172 215.64 220.596C216.128 221.02 216.84 221.26 217.776 221.316V216.396C216.848 216.444 216.14 216.68 215.652 217.104C215.164 217.52 214.92 218.096 214.92 218.832ZM218.604 221.316C219.54 221.268 220.252 221.032 220.74 220.608C221.236 220.184 221.484 219.592 221.484 218.832C221.484 218.088 221.236 217.508 220.74 217.092C220.252 216.676 219.54 216.444 218.604 216.396V221.316ZM224.126 215.688H224.978V220.704L229.19 215.688H229.946V222H229.094V216.984L224.894 222H224.126V215.688ZM234.68 219.192H233.24V222H232.388V215.688H233.24V218.46H234.692L236.912 215.688H237.836L235.352 218.748L238.016 222H237.008L234.68 219.192ZM241.416 215.64C242.24 215.64 242.872 215.848 243.312 216.264C243.752 216.672 243.972 217.28 243.972 218.088V222H243.156V221.016C242.964 221.344 242.68 221.6 242.304 221.784C241.936 221.968 241.496 222.06 240.984 222.06C240.28 222.06 239.72 221.892 239.304 221.556C238.888 221.22 238.68 220.776 238.68 220.224C238.68 219.688 238.872 219.256 239.256 218.928C239.648 218.6 240.268 218.436 241.116 218.436H243.12V218.052C243.12 217.508 242.968 217.096 242.664 216.816C242.36 216.528 241.916 216.384 241.332 216.384C240.932 216.384 240.548 216.452 240.18 216.588C239.812 216.716 239.496 216.896 239.232 217.128L238.848 216.492C239.168 216.22 239.552 216.012 240 215.868C240.448 215.716 240.92 215.64 241.416 215.64ZM241.116 221.388C241.596 221.388 242.008 221.28 242.352 221.064C242.696 220.84 242.952 220.52 243.12 220.104V219.072H241.14C240.06 219.072 239.52 219.448 239.52 220.2C239.52 220.568 239.66 220.86 239.94 221.076C240.22 221.284 240.612 221.388 241.116 221.388ZM250.68 216.444H248.292V222H247.44V216.444H245.052V215.688H250.68V216.444ZM254.084 215.64C254.908 215.64 255.54 215.848 255.98 216.264C256.42 216.672 256.64 217.28 256.64 218.088V222H255.824V221.016C255.632 221.344 255.348 221.6 254.972 221.784C254.604 221.968 254.164 222.06 253.652 222.06C252.948 222.06 252.388 221.892 251.972 221.556C251.556 221.22 251.348 220.776 251.348 220.224C251.348 219.688 251.54 219.256 251.924 218.928C252.316 218.6 252.936 218.436 253.784 218.436H255.788V218.052C255.788 217.508 255.636 217.096 255.332 216.816C255.028 216.528 254.584 216.384 254 216.384C253.6 216.384 253.216 216.452 252.848 216.588C252.48 216.716 252.164 216.896 251.9 217.128L251.516 216.492C251.836 216.22 252.22 216.012 252.668 215.868C253.116 215.716 253.588 215.64 254.084 215.64ZM253.784 221.388C254.264 221.388 254.676 221.28 255.02 221.064C255.364 220.84 255.62 220.52 255.788 220.104V219.072H253.808C252.728 219.072 252.188 219.448 252.188 220.2C252.188 220.568 252.328 220.86 252.608 221.076C252.888 221.284 253.28 221.388 253.784 221.388ZM263.788 213.6V222H262.924V214.368H260.944V213.6H263.788ZM273.989 216.444H270.377V222H269.525V215.688H273.989V216.444ZM277.531 222.06C276.923 222.06 276.375 221.924 275.887 221.652C275.399 221.372 275.015 220.988 274.735 220.5C274.455 220.012 274.315 219.46 274.315 218.844C274.315 218.228 274.455 217.676 274.735 217.188C275.015 216.7 275.399 216.32 275.887 216.048C276.375 215.776 276.923 215.64 277.531 215.64C278.139 215.64 278.687 215.776 279.175 216.048C279.663 216.32 280.043 216.7 280.315 217.188C280.595 217.676 280.735 218.228 280.735 218.844C280.735 219.46 280.595 220.012 280.315 220.5C280.043 220.988 279.663 221.372 279.175 221.652C278.687 221.924 278.139 222.06 277.531 222.06ZM277.531 221.304C277.979 221.304 278.379 221.204 278.731 221.004C279.091 220.796 279.371 220.504 279.571 220.128C279.771 219.752 279.871 219.324 279.871 218.844C279.871 218.364 279.771 217.936 279.571 217.56C279.371 217.184 279.091 216.896 278.731 216.696C278.379 216.488 277.979 216.384 277.531 216.384C277.083 216.384 276.679 216.488 276.319 216.696C275.967 216.896 275.687 217.184 275.479 217.56C275.279 217.936 275.179 218.364 275.179 218.844C275.179 219.324 275.279 219.752 275.479 220.128C275.687 220.504 275.967 220.796 276.319 221.004C276.679 221.204 277.083 221.304 277.531 221.304ZM288.677 221.256V223.524H287.873V222H282.221V223.524H281.417V221.256H281.777C282.201 221.232 282.489 220.92 282.641 220.32C282.793 219.72 282.897 218.88 282.953 217.8L283.037 215.688H287.693V221.256H288.677ZM283.733 217.848C283.693 218.744 283.617 219.484 283.505 220.068C283.393 220.644 283.193 221.04 282.905 221.256H286.841V216.444H283.805L283.733 217.848ZM296.118 222.06C295.494 222.06 294.934 221.924 294.438 221.652C293.95 221.38 293.566 221 293.286 220.512C293.006 220.016 292.866 219.46 292.866 218.844C292.866 218.228 293.006 217.676 293.286 217.188C293.566 216.7 293.95 216.32 294.438 216.048C294.934 215.776 295.494 215.64 296.118 215.64C296.662 215.64 297.146 215.748 297.57 215.964C298.002 216.172 298.342 216.48 298.59 216.888L297.954 217.32C297.746 217.008 297.482 216.776 297.162 216.624C296.842 216.464 296.494 216.384 296.118 216.384C295.662 216.384 295.25 216.488 294.882 216.696C294.522 216.896 294.238 217.184 294.03 217.56C293.83 217.936 293.73 218.364 293.73 218.844C293.73 219.332 293.83 219.764 294.03 220.14C294.238 220.508 294.522 220.796 294.882 221.004C295.25 221.204 295.662 221.304 296.118 221.304C296.494 221.304 296.842 221.228 297.162 221.076C297.482 220.924 297.746 220.692 297.954 220.38L298.59 220.812C298.342 221.22 298.002 221.532 297.57 221.748C297.138 221.956 296.654 222.06 296.118 222.06ZM310.436 215.688V222H309.656V217.008L307.1 221.232H306.716L304.16 216.996V222H303.38V215.688H304.244L306.92 220.236L309.644 215.688H310.436ZM315.465 222.06C314.857 222.06 314.309 221.924 313.821 221.652C313.333 221.372 312.949 220.988 312.669 220.5C312.389 220.012 312.249 219.46 312.249 218.844C312.249 218.228 312.389 217.676 312.669 217.188C312.949 216.7 313.333 216.32 313.821 216.048C314.309 215.776 314.857 215.64 315.465 215.64C316.073 215.64 316.621 215.776 317.109 216.048C317.597 216.32 317.977 216.7 318.249 217.188C318.529 217.676 318.669 218.228 318.669 218.844C318.669 219.46 318.529 220.012 318.249 220.5C317.977 220.988 317.597 221.372 317.109 221.652C316.621 221.924 316.073 222.06 315.465 222.06ZM315.465 221.304C315.913 221.304 316.313 221.204 316.665 221.004C317.025 220.796 317.305 220.504 317.505 220.128C317.705 219.752 317.805 219.324 317.805 218.844C317.805 218.364 317.705 217.936 317.505 217.56C317.305 217.184 317.025 216.896 316.665 216.696C316.313 216.488 315.913 216.384 315.465 216.384C315.017 216.384 314.613 216.488 314.253 216.696C313.901 216.896 313.621 217.184 313.413 217.56C313.213 217.936 313.113 218.364 313.113 218.844C313.113 219.324 313.213 219.752 313.413 220.128C313.621 220.504 313.901 220.796 314.253 221.004C314.613 221.204 315.017 221.304 315.465 221.304ZM327.546 215.688V222H326.766V217.008L324.21 221.232H323.826L321.27 216.996V222H320.49V215.688H321.354L324.03 220.236L326.754 215.688H327.546ZM335.49 219.108H330.21C330.258 219.764 330.51 220.296 330.966 220.704C331.422 221.104 331.998 221.304 332.694 221.304C333.086 221.304 333.446 221.236 333.774 221.1C334.102 220.956 334.386 220.748 334.626 220.476L335.106 221.028C334.826 221.364 334.474 221.62 334.05 221.796C333.634 221.972 333.174 222.06 332.67 222.06C332.022 222.06 331.446 221.924 330.942 221.652C330.446 221.372 330.058 220.988 329.778 220.5C329.498 220.012 329.358 219.46 329.358 218.844C329.358 218.228 329.49 217.676 329.754 217.188C330.026 216.7 330.394 216.32 330.858 216.048C331.33 215.776 331.858 215.64 332.442 215.64C333.026 215.64 333.55 215.776 334.014 216.048C334.478 216.32 334.842 216.7 335.106 217.188C335.37 217.668 335.502 218.22 335.502 218.844L335.49 219.108ZM332.442 216.372C331.834 216.372 331.322 216.568 330.906 216.96C330.498 217.344 330.266 217.848 330.21 218.472H334.686C334.63 217.848 334.394 217.344 333.978 216.96C333.57 216.568 333.058 216.372 332.442 216.372ZM337.388 215.688H338.24V218.484H342.212V215.688H343.064V222H342.212V219.216H338.24V222H337.388V215.688ZM349.926 216.444H347.538V222H346.686V216.444H344.298V215.688H349.926V216.444ZM353.33 215.64C354.154 215.64 354.786 215.848 355.226 216.264C355.666 216.672 355.886 217.28 355.886 218.088V222H355.07V221.016C354.878 221.344 354.594 221.6 354.218 221.784C353.85 221.968 353.41 222.06 352.898 222.06C352.194 222.06 351.634 221.892 351.218 221.556C350.802 221.22 350.594 220.776 350.594 220.224C350.594 219.688 350.786 219.256 351.17 218.928C351.562 218.6 352.182 218.436 353.03 218.436H355.034V218.052C355.034 217.508 354.882 217.096 354.578 216.816C354.274 216.528 353.83 216.384 353.246 216.384C352.846 216.384 352.462 216.452 352.094 216.588C351.726 216.716 351.41 216.896 351.146 217.128L350.762 216.492C351.082 216.22 351.466 216.012 351.914 215.868C352.362 215.716 352.834 215.64 353.33 215.64ZM353.03 221.388C353.51 221.388 353.922 221.28 354.266 221.064C354.61 220.84 354.866 220.52 355.034 220.104V219.072H353.054C351.974 219.072 351.434 219.448 351.434 220.2C351.434 220.568 351.574 220.86 351.854 221.076C352.134 221.284 352.526 221.388 353.03 221.388ZM363.466 215.64C364.29 215.64 364.922 215.848 365.362 216.264C365.802 216.672 366.022 217.28 366.022 218.088V222H365.206V221.016C365.014 221.344 364.73 221.6 364.354 221.784C363.986 221.968 363.546 222.06 363.034 222.06C362.33 222.06 361.77 221.892 361.354 221.556C360.938 221.22 360.73 220.776 360.73 220.224C360.73 219.688 360.922 219.256 361.306 218.928C361.698 218.6 362.318 218.436 363.166 218.436H365.17V218.052C365.17 217.508 365.018 217.096 364.714 216.816C364.41 216.528 363.966 216.384 363.382 216.384C362.982 216.384 362.598 216.452 362.23 216.588C361.862 216.716 361.546 216.896 361.282 217.128L360.898 216.492C361.218 216.22 361.602 216.012 362.05 215.868C362.498 215.716 362.97 215.64 363.466 215.64ZM363.166 221.388C363.646 221.388 364.058 221.28 364.402 221.064C364.746 220.84 365.002 220.52 365.17 220.104V219.072H363.19C362.11 219.072 361.57 219.448 361.57 220.2C361.57 220.568 361.71 220.86 361.99 221.076C362.27 221.284 362.662 221.388 363.166 221.388ZM370.582 219.192H369.142V222H368.29V215.688H369.142V218.46H370.594L372.814 215.688H373.738L371.254 218.748L373.918 222H372.91L370.582 219.192ZM379.574 216.444H377.186V222H376.334V216.444H373.946V215.688H379.574V216.444ZM380.806 215.688H381.658V220.704L385.87 215.688H386.626V222H385.774V216.984L381.574 222H380.806V215.688ZM393.088 218.736C393.944 218.936 394.372 219.452 394.372 220.284C394.372 220.836 394.168 221.26 393.76 221.556C393.352 221.852 392.744 222 391.936 222H389.068V215.688H391.852C392.572 215.688 393.136 215.828 393.544 216.108C393.952 216.388 394.156 216.788 394.156 217.308C394.156 217.652 394.06 217.948 393.868 218.196C393.684 218.436 393.424 218.616 393.088 218.736ZM389.896 218.496H391.792C392.28 218.496 392.652 218.404 392.908 218.22C393.172 218.036 393.304 217.768 393.304 217.416C393.304 217.064 393.172 216.8 392.908 216.624C392.652 216.448 392.28 216.36 391.792 216.36H389.896V218.496ZM391.9 221.328C392.444 221.328 392.852 221.24 393.124 221.064C393.396 220.888 393.532 220.612 393.532 220.236C393.532 219.86 393.408 219.584 393.16 219.408C392.912 219.224 392.52 219.132 391.984 219.132H389.896V221.328H391.9ZM398.541 215.64C399.365 215.64 399.997 215.848 400.437 216.264C400.877 216.672 401.097 217.28 401.097 218.088V222H400.281V221.016C400.089 221.344 399.805 221.6 399.429 221.784C399.061 221.968 398.621 222.06 398.109 222.06C397.405 222.06 396.845 221.892 396.429 221.556C396.013 221.22 395.805 220.776 395.805 220.224C395.805 219.688 395.997 219.256 396.381 218.928C396.773 218.6 397.393 218.436 398.241 218.436H400.245V218.052C400.245 217.508 400.093 217.096 399.789 216.816C399.485 216.528 399.041 216.384 398.457 216.384C398.057 216.384 397.673 216.452 397.305 216.588C396.937 216.716 396.621 216.896 396.357 217.128L395.973 216.492C396.293 216.22 396.677 216.012 397.125 215.868C397.573 215.716 398.045 215.64 398.541 215.64ZM398.241 221.388C398.721 221.388 399.133 221.28 399.477 221.064C399.821 220.84 400.077 220.52 400.245 220.104V219.072H398.265C397.185 219.072 396.645 219.448 396.645 220.2C396.645 220.568 396.785 220.86 397.065 221.076C397.345 221.284 397.737 221.388 398.241 221.388ZM409.941 221.256V223.584H409.137V222H403.365V215.688H404.217V221.256H408.069V215.688H408.921V221.256H409.941ZM411.568 215.688H412.42V220.704L416.632 215.688H417.388V222H416.536V216.984L412.336 222H411.568V215.688ZM419.829 215.688H420.681V220.704L424.893 215.688H425.649V222H424.797V216.984L420.597 222H419.829V215.688ZM428.151 222.06C427.975 222.06 427.823 221.996 427.695 221.868C427.575 221.74 427.515 221.584 427.515 221.4C427.515 221.216 427.575 221.064 427.695 220.944C427.823 220.816 427.975 220.752 428.151 220.752C428.327 220.752 428.479 220.816 428.607 220.944C428.735 221.064 428.799 221.216 428.799 221.4C428.799 221.584 428.735 221.74 428.607 221.868C428.479 221.996 428.327 222.06 428.151 222.06Z" fill="white"/>
</svg>
